<?xml version="1.0" encoding="utf-8"?>
<svg viewBox="0 0 500 500" xmlns="http://www.w3.org/2000/svg" xmlns:xlink="http://www.w3.org/1999/xlink" xmlns:bx="https://boxy-svg.com">
  <defs>
    <pattern id="pattern-0-0" patternTransform="matrix(1, 0, 0, 1, 201.157759, 206.199618)" xlink:href="#pattern-0"/>
    <pattern x="0" y="0" width="25" height="25" patternUnits="userSpaceOnUse" viewBox="0 0 100 100" id="pattern-0">
      <rect x="0" y="0" width="50" height="100" style="fill: black;"/>
    </pattern>
    <style bx:fonts="Antonio">@import url(https://fonts.googleapis.com/css2?family=Antonio%3Aital%2Cwght%400%2C100%3B0%2C200%3B0%2C300%3B0%2C400%3B0%2C500%3B0%2C600%3B0%2C700&amp;display=swap);</style>
  </defs>
  <ellipse style="stroke: rgb(0, 0, 0); fill: rgb(6, 3, 3);" cx="268.93" cy="199.497" rx="90.166" ry="87.024"/>
  <g transform="matrix(1, 0, 0.000636, 1, -38.233059, -49.133633)" style="">
    <path class="st0" d="M307.9,227.54c-3.77-0.92-6.98,0.14-10.27,1.49c-2.41,0.99-5.16,2.02-7.71,1.94c-5.67-0.18-8-4.13-9.81-7.98 c-2.13-4.53-1.56-9.32-0.89-14.05c0.23-1.63,0.63-3.25,1.02-5.23c-3.66,2.11-4.99,5.11-6.37,8.18 c-2.18-5.81,3.24-14.75,10.89-17.93c5.54-2.31,11.28-2.05,17-0.54c6.22,1.64,7.97,6.63,11.09,10.72c-0.57-1.6-1.14-3.21-1.71-4.81 c0.18-0.07,0.36-0.15,0.54-0.22c2.11,3.22,4.21,6.43,6.32,9.66c1.89-0.93,3.34-1.64,4.79-2.36c0.11,0.13,0.21,0.26,0.32,0.39 c-0.31,0.45-0.62,0.9-1.07,1.55c0.47-0.13,0.71-0.17,0.92-0.27c4.43-2.05,7.33-1.94,10.48,0.39c2.21,1.63,2.87,4.39,1.54,6.45 c-1.21,1.87-3.64,2.79-6.48,1.76c-2.63-0.95-4.94-2.56-7.38-3.88c-1.16,0.28-2.71,0.66-4.25,1.04c-0.18-0.86-0.36-1.71-0.58-2.78 c-5.34,1.47-9.25-1.04-12.91-4.14c-1.64-1.39-3.32-2.75-5.07-4.04c-3.65-2.7-7.01-2.44-10.28,0.73c1.68-0.29,3.35-0.57,5.02-0.85 c0.09,0.16,0.17,0.32,0.26,0.48c-1.28,0.74-2.55,1.47-3.83,2.21c0.05,0.12,0.11,0.23,0.16,0.35c0.86-0.19,1.71-0.37,2.85-0.62 c-4,3.65-1.53,8.67,7.01,11.85c-2.73,1.16-5.56,0.8-9.23-1.17c1.26,2.87,2.97,3.47,10.83,4.04c-1.67,0.2-3.34,0.4-5.33,0.64 c3.19,1.62,5.98,0.67,8.82-0.12c0.54,1.02,1.05,1.97,1.63,3.05c0.28-0.29,0.46-0.39,0.45-0.48c-0.14-2.73,0.3-5.46,3.36-6.8 c3.15-1.37,6.35-0.41,9.12,1.24c1.57,0.93,2.91,2.16,3.87,2.88c2.28-0.73,4.32-1.75,6.43-1.85c0.72-0.03,1.59,2.25,2.18,3.8 c-2.77-0.73-3.87,0.27-4.54,2.09c-0.82,2.24-2.38,2.51-4.5,0.83c-1.41-1.12-2.62-2.46-4.15-3.45c-1.84-1.19-4.03-1.42-5.81,0.07 c-0.67,0.56-0.69,1.69-1.01,2.55c1.05,0.25,2.5,1,3.1,0.66c2.9-1.66,4.3-0.27,5.85,1.56c2.68,3.17,4.82,3.14,7.95,0.14 c0.33-0.32,1.13-0.46,1.68-0.41c4.82,0.46,10.32,4.67,11.45,8.63c0.21,0.73,0.87,1.36,1.08,2.09c0.33,1.16,0.44,2.36,0.28,3.67 c-7.73-4.42-15.78-4.2-24.06-2.86c-0.63,0.1-1.71-0.43-2.1-0.94c-1.16-1.51-2.08-3.16-3.44-5.3c-1.21,1.55-2.22,2.83-3.23,4.12 c0.23,0.14,0.47,0.27,0.7,0.41c0.62-0.74,1.24-1.48,2.03-2.43c1.38,2.09,2.65,4.02,4,6.07c-1.82,0.82-3.51,1.58-5.31,2.38 c-0.4-0.63-0.72-1.15-1.16-1.83c-2.67,1.08-5.25,2.09-7.79,3.16c-1.88,0.8-4,1.18-5.36-0.23c-0.94-0.98-1.33-2.72-1.17-4.05 C296.85,233.05,301.09,229.38,307.9,227.54z" style="fill: rgb(255, 255, 255);"/>
    <path class="st0" d="M320.03,270.97c0.51-0.8,1.02-1.59,1.6-2.49c-1.72,0.08-3.34,0.34-4.91,0.17c-1.61-0.17-3.16-0.75-5.2-1.27 c1.56-0.93,2.71-1.62,4.15-2.49c-1.89-0.5-3.52-0.86-5.09-1.36c-5.92-1.87-6.75-3.69-4.01-8.86c-0.53-0.15-1.04-0.32-1.56-0.45 c-2.23-0.56-2.32-1.64-1.24-3.2c3.19-4.58,7.62-7.94,13.43-9.81c6.43-2.07,13.06-2.86,19.72-0.86c2.03,0.61,3.96,1.69,5.62,2.87 c0.71,0.5,0.63,1.81,0.9,2.76c-1.15,0.12-2.51,0.63-3.43,0.29c-5-1.84-5.52-2.03-8.34-1.66c2.75,1.28,5.76,2.6,8.65,4.1 c0.72,0.37,1.34,1.26,1.5,1.99c1.3,6.05-3.45,15.57-10.88,17.9c-3.47,1.09-6.98,2.06-10.48,3.08 C320.33,271.45,320.18,271.21,320.03,270.97z" style="fill: rgb(255, 255, 255);"/>
  </g>
  <text style="fill: rgb(255, 255, 255); font-family: Antonio; font-size: 22px; letter-spacing: -1.1px; stroke: url(#pattern-0-0); stroke-miterlimit: 8; word-spacing: 4.3px; white-space: pre;" transform="matrix(0.997728, -0.000017, 0.000794, 1.238803, 40.371777, -27.857565)" x="186.931" y="229.972">GORILLA DAO</text>
</svg>